<?xml version="1.0" standalone="no"?>
<!DOCTYPE svg PUBLIC "-//W3C//DTD SVG 20010904//EN"
 "http://www.w3.org/TR/2001/REC-SVG-20010904/DTD/svg10.dtd">
<svg version="1.0" xmlns="http://www.w3.org/2000/svg"
 width="1350.000000pt" height="1338.000000pt" viewBox="0 0 1350.000000 1338.000000"
 preserveAspectRatio="xMidYMid meet">
<metadata>
Created by potrace 1.10, written by Peter Selinger 2001-2011
</metadata>
<g transform="translate(0.000000,1338.000000) scale(0.100000,-0.100000)"
fill="#000000" stroke="none">
<path d="M6065 12659 c-77 -5 -187 -14 -245 -20 -58 -6 -145 -15 -195 -20 -49
-4 -144 -17 -210 -29 -66 -11 -142 -24 -170 -29 -27 -4 -70 -13 -95 -18 -25
-6 -81 -19 -125 -28 -44 -9 -102 -23 -130 -30 -27 -8 -79 -21 -115 -31 -114
-29 -267 -73 -300 -87 -14 -5 -38 -13 -55 -18 -33 -8 -158 -51 -217 -74 -21
-8 -57 -22 -80 -31 -24 -9 -56 -22 -73 -30 -16 -7 -70 -29 -120 -49 -203 -84
-547 -256 -720 -362 -11 -7 -29 -17 -40 -23 -11 -6 -32 -18 -47 -28 -14 -9
-48 -30 -75 -46 -60 -37 -346 -230 -393 -266 -176 -135 -366 -290 -454 -369
-107 -98 -206 -191 -251 -236 -115 -115 -345 -365 -389 -422 -11 -16 -31 -40
-42 -53 -38 -44 -148 -184 -174 -220 -13 -19 -30 -41 -37 -48 -7 -8 -18 -23
-25 -35 -6 -12 -31 -48 -55 -79 -23 -31 -43 -59 -43 -61 0 -3 -33 -54 -73
-113 -40 -60 -76 -116 -80 -124 -4 -8 -16 -28 -27 -45 -11 -16 -24 -39 -30
-50 -6 -11 -16 -29 -23 -40 -78 -127 -178 -320 -266 -510 -41 -87 -52 -112
-87 -192 -10 -21 -21 -47 -27 -57 -5 -11 -13 -31 -17 -45 -5 -14 -18 -51 -30
-81 -38 -97 -80 -213 -101 -280 -12 -36 -27 -81 -34 -100 -7 -19 -21 -62 -30
-95 -41 -141 -42 -142 -90 -330 -18 -70 -42 -186 -86 -410 -6 -33 -15 -94 -19
-135 -5 -41 -13 -102 -18 -135 -31 -179 -45 -429 -46 -795 0 -365 12 -578 45
-820 6 -41 15 -104 19 -140 9 -68 31 -193 49 -270 5 -25 17 -79 26 -120 26
-121 45 -201 62 -260 8 -30 22 -80 30 -110 42 -150 160 -505 182 -548 5 -9 16
-35 24 -57 26 -70 59 -148 83 -202 13 -29 36 -79 50 -110 58 -129 183 -372
245 -478 10 -16 27 -47 38 -67 11 -21 33 -57 48 -80 36 -56 51 -80 59 -97 18
-36 297 -438 313 -451 3 -3 19 -23 36 -45 16 -22 32 -42 35 -45 3 -3 21 -25
40 -50 37 -48 117 -142 239 -281 154 -173 461 -466 661 -629 30 -25 57 -47 60
-51 8 -9 281 -212 335 -249 125 -85 210 -141 258 -172 79 -49 90 -56 112 -68
11 -6 29 -16 40 -23 38 -23 130 -75 195 -111 73 -41 386 -196 395 -196 3 0 35
-14 72 -31 99 -45 123 -55 173 -74 25 -10 59 -23 75 -30 105 -45 394 -144 525
-180 36 -9 85 -23 110 -30 25 -8 72 -20 105 -29 33 -8 80 -20 105 -27 25 -7
65 -16 90 -20 25 -4 88 -17 140 -29 52 -11 124 -24 160 -29 36 -6 92 -14 125
-20 68 -11 274 -35 475 -53 355 -33 1064 -6 1405 54 33 6 76 12 95 14 40 5
173 30 240 46 25 6 65 15 90 19 172 31 598 155 820 239 30 12 73 28 95 36 22
8 49 18 60 21 11 3 29 12 40 20 11 7 25 13 32 13 7 0 43 14 80 31 38 17 88 40
113 52 175 79 403 196 555 285 44 26 87 52 97 57 46 27 200 124 255 162 35 24
93 64 130 90 92 62 208 151 327 248 54 44 113 91 130 105 33 26 55 46 210 190
323 300 663 695 892 1033 80 119 134 202 141 217 4 8 19 33 34 55 15 22 37 58
49 80 12 22 30 54 40 70 20 33 32 55 104 190 107 201 184 365 255 540 18 44
37 89 43 99 6 11 14 31 19 45 4 14 24 71 44 126 43 121 70 202 91 275 9 30 22
73 29 95 37 123 68 241 90 340 9 44 21 94 26 110 12 40 39 185 49 260 4 33 11
71 14 85 10 40 37 255 46 370 5 58 13 152 19 210 13 133 13 653 0 785 -5 55
-14 147 -18 205 -13 151 -40 360 -51 394 -6 16 -10 45 -10 65 0 20 -5 52 -10
71 -6 19 -15 62 -20 95 -5 33 -15 80 -21 105 -19 78 -37 153 -54 225 -15 67
-34 135 -60 220 -6 22 -20 67 -30 100 -9 33 -22 71 -27 85 -6 14 -14 39 -18
55 -5 17 -18 55 -30 85 -11 30 -30 82 -41 115 -11 33 -26 75 -34 93 -22 48
-40 90 -65 152 -45 112 -228 488 -282 580 -11 19 -31 55 -45 80 -13 25 -33 59
-44 75 -10 17 -23 39 -29 50 -64 120 -356 542 -468 675 -11 14 -55 66 -96 116
-112 135 -183 213 -345 377 -326 331 -651 599 -1021 841 -74 48 -146 96 -160
105 -14 10 -32 21 -40 25 -8 4 -24 12 -35 19 -312 189 -611 333 -1045 503 -44
17 -396 130 -470 151 -30 8 -77 21 -105 29 -27 7 -74 20 -104 28 -29 9 -62 16
-73 16 -11 0 -43 6 -71 14 -94 25 -226 50 -473 91 -51 8 -114 15 -140 15 -27
0 -68 5 -90 10 -67 15 -515 40 -699 38 -93 0 -233 -5 -310 -9z m755 -209 c74
-6 178 -16 230 -22 52 -5 129 -14 170 -18 84 -10 241 -34 310 -49 25 -6 81
-17 125 -26 44 -9 103 -23 131 -31 28 -8 58 -14 66 -14 9 0 40 -7 69 -16 30
-8 78 -22 107 -30 28 -8 76 -21 105 -29 59 -17 343 -110 378 -124 13 -5 42
-16 64 -24 59 -22 196 -77 230 -92 17 -7 53 -23 80 -35 75 -33 402 -195 470
-233 33 -18 116 -67 183 -108 68 -41 131 -78 140 -84 55 -33 208 -137 272
-185 41 -30 92 -66 112 -78 20 -13 38 -26 40 -30 2 -4 39 -34 82 -67 43 -33
84 -64 90 -71 6 -6 52 -45 101 -86 232 -195 511 -476 725 -732 80 -96 262
-336 320 -421 18 -27 52 -77 74 -110 23 -33 45 -68 51 -77 5 -9 47 -78 93
-153 45 -75 82 -138 82 -141 0 -2 11 -22 25 -44 82 -131 321 -647 380 -825 13
-38 34 -95 45 -125 12 -30 28 -77 36 -105 8 -27 19 -63 24 -80 35 -113 46
-154 77 -270 19 -71 39 -151 43 -177 5 -27 11 -52 15 -57 5 -9 29 -124 40
-196 3 -16 12 -70 20 -120 25 -149 45 -311 45 -362 0 -26 5 -66 10 -88 6 -22
15 -152 20 -290 11 -260 0 -693 -19 -817 -6 -34 -20 -146 -32 -248 -12 -102
-23 -189 -26 -193 -3 -5 -9 -36 -13 -70 -10 -72 -27 -161 -45 -232 -23 -91
-37 -150 -45 -185 -14 -65 -32 -135 -45 -170 -7 -19 -20 -62 -30 -95 -32 -110
-47 -160 -61 -195 -7 -19 -27 -75 -44 -125 -34 -98 -54 -151 -78 -205 -8 -19
-21 -50 -29 -67 -42 -105 -79 -185 -159 -348 -41 -82 -90 -177 -109 -210 -19
-33 -38 -67 -41 -75 -6 -12 -59 -102 -179 -298 -88 -146 -400 -565 -501 -675
-20 -21 -58 -66 -87 -100 -106 -128 -407 -419 -636 -613 -19 -16 -50 -43 -70
-60 -169 -144 -618 -449 -851 -577 -25 -13 -70 -38 -100 -55 -202 -111 -563
-275 -730 -332 -14 -5 -50 -18 -80 -30 -30 -12 -68 -25 -85 -30 -16 -5 -64
-20 -105 -34 -121 -42 -143 -49 -180 -57 -19 -4 -66 -17 -105 -28 -79 -23
-191 -50 -310 -76 -44 -9 -98 -22 -120 -27 -22 -5 -67 -14 -100 -18 -33 -4
-82 -13 -110 -18 -47 -10 -195 -28 -420 -52 -295 -32 -778 -32 -1095 -1 -381
38 -569 69 -865 141 -27 7 -68 16 -90 21 -22 4 -62 14 -90 23 -27 8 -77 22
-110 31 -117 33 -151 44 -210 65 -33 12 -73 25 -90 30 -16 4 -55 18 -85 30
-30 12 -66 25 -80 30 -24 7 -55 20 -115 46 -16 7 -55 22 -85 34 -52 21 -86 36
-218 96 -87 40 -240 117 -302 151 -30 17 -86 47 -125 68 -103 56 -285 169
-410 253 -110 75 -409 296 -455 338 -14 12 -75 65 -135 117 -247 211 -574 554
-798 837 -88 111 -278 377 -322 452 -5 9 -30 49 -55 88 -51 80 -50 79 -105
175 -157 276 -273 520 -407 855 -40 99 -73 192 -88 245 -5 17 -19 57 -31 90
-11 33 -25 76 -29 95 -4 19 -13 49 -18 65 -13 37 -35 120 -55 200 -8 33 -21
83 -27 110 -7 28 -16 70 -20 95 -8 46 -23 118 -43 200 -5 25 -14 72 -18 105
-4 33 -12 89 -18 125 -27 162 -43 406 -48 735 -7 430 5 656 48 953 7 42 15
104 19 137 4 33 18 107 29 165 12 58 26 125 30 150 8 44 17 82 48 205 33 129
97 349 116 395 5 14 13 39 18 55 11 45 56 170 88 250 112 274 127 307 232 520
94 191 128 252 222 408 40 65 77 126 82 135 60 103 298 438 370 523 16 19 55
66 85 104 30 37 60 73 66 79 5 6 50 56 99 111 211 239 607 605 809 750 22 16
47 35 55 43 7 7 46 35 85 62 39 27 109 76 156 109 47 34 94 66 105 71 11 6 32
18 47 28 54 35 265 162 328 196 77 43 403 204 475 235 28 12 64 28 80 35 37
17 176 73 230 93 22 8 56 21 75 29 52 20 181 64 215 74 17 5 62 18 100 30 39
12 84 25 100 29 17 5 66 19 110 31 44 13 98 26 120 31 22 4 58 12 80 17 147
37 482 98 575 106 25 2 90 8 145 15 254 30 806 41 1065 21z"/>
<path d="M6400 11735 c-14 -8 -38 -14 -53 -15 -16 0 -40 -9 -54 -20 -14 -11
-32 -20 -39 -20 -7 0 -18 -9 -23 -19 -8 -15 -7 -20 6 -25 10 -4 20 -1 25 8 4
8 23 17 41 21 17 4 65 18 106 31 44 14 79 20 85 15 6 -5 32 -12 58 -15 46 -7
60 -17 64 -44 5 -30 15 -43 41 -53 22 -8 24 -12 13 -19 -8 -6 -25 -10 -38 -10
-13 0 -37 -7 -53 -16 -17 -8 -33 -13 -36 -10 -8 8 21 78 34 83 14 5 18 33 6
33 -13 -1 -53 -37 -53 -48 0 -13 -20 -20 -42 -14 -21 5 -23 23 -6 40 23 23
-21 26 -46 3 -12 -11 -26 -21 -30 -21 -5 0 -19 -11 -32 -25 -23 -25 -67 -34
-79 -16 -3 6 4 15 15 21 27 14 17 30 -19 30 -20 0 -30 -6 -34 -20 -7 -27 -41
-26 -60 3 -14 21 -16 22 -48 5 -19 -9 -59 -22 -89 -28 -49 -9 -80 -25 -191
-97 -32 -20 -119 -199 -119 -246 0 -12 -7 -31 -15 -41 -8 -11 -15 -31 -15 -44
0 -13 -11 -38 -24 -55 -41 -55 -47 -105 -22 -182 8 -22 16 -76 20 -119 5 -52
16 -98 32 -131 13 -29 24 -65 24 -81 -1 -40 -25 -127 -37 -131 -5 -2 -20 8
-33 22 -21 23 -28 24 -79 19 -76 -9 -87 -17 -95 -63 -7 -44 -8 -45 -101 -56
-93 -12 -165 -36 -183 -63 -15 -24 -15 -26 6 -40 12 -8 22 -23 22 -34 0 -11 7
-26 15 -34 8 -9 15 -29 15 -45 l0 -29 55 4 c30 3 59 7 64 11 6 3 44 -4 85 -15
42 -11 90 -19 108 -18 31 3 32 2 40 -47 5 -27 6 -87 3 -131 -5 -67 -3 -85 10
-98 9 -9 22 -16 29 -16 22 0 66 -40 66 -60 0 -10 4 -21 9 -24 15 -10 124 22
151 44 76 60 150 74 390 71 87 -1 119 -6 194 -31 49 -17 102 -30 118 -30 15 0
45 -6 65 -14 21 -7 64 -21 96 -30 47 -14 57 -21 57 -39 1 -21 50 -69 168 -162
24 -19 58 -53 75 -75 18 -22 58 -72 90 -112 72 -88 79 -101 71 -132 -6 -26 26
-93 74 -155 34 -42 60 -82 68 -101 28 -71 45 -102 82 -154 l44 -59 -1 -128
c-1 -99 2 -136 14 -159 15 -28 19 -30 75 -30 88 0 179 46 231 117 27 36 39 62
39 86 0 19 7 56 15 83 21 70 20 153 -2 161 -10 4 -31 17 -46 30 -16 13 -41 26
-55 30 -15 3 -47 21 -71 40 -24 18 -49 33 -56 33 -26 0 -85 93 -85 137 -1 23
-34 124 -51 150 -20 34 -5 52 51 59 48 6 51 9 47 31 -5 28 19 47 73 58 48 10
129 34 167 51 17 8 35 14 41 14 22 0 109 54 137 84 28 31 124 106 170 133 18
11 17 12 -15 13 -19 0 -41 4 -49 9 -10 6 -20 3 -31 -12 l-17 -21 -16 31 c-9
17 -22 33 -28 35 -9 3 -9 9 0 26 l12 23 31 -33 c27 -30 31 -31 43 -15 13 18
29 118 28 177 -2 84 -19 259 -26 267 -5 4 -16 -3 -26 -16 -24 -32 -56 -22 -47
14 3 14 9 36 12 48 4 15 0 30 -10 40 -31 31 -10 52 23 23 9 -8 28 -18 43 -21
34 -9 46 14 29 52 -14 30 0 53 33 53 35 0 145 53 146 71 0 19 -59 97 -80 104
-8 3 -29 25 -47 48 -17 23 -45 57 -62 76 -17 19 -49 64 -71 101 -22 37 -67 98
-100 136 -33 38 -60 78 -60 90 0 11 -9 30 -21 42 -33 36 -109 151 -109 166 0
8 15 17 35 20 19 4 39 15 45 26 14 26 13 30 -9 30 -11 0 -22 4 -26 9 -26 43
-280 74 -338 42 -26 -15 -29 -15 -41 2 -7 9 -26 17 -43 17 -38 0 -53 16 -53
58 0 34 0 34 38 29 20 -3 52 -9 70 -13 31 -6 33 -5 30 16 -2 18 -19 27 -88 51
-47 17 -99 34 -116 38 -18 5 -37 12 -44 16 -7 4 -26 11 -44 15 -17 5 -56 18
-86 30 -140 54 -169 60 -321 60 -100 0 -161 5 -195 15 -62 19 -151 19 -184 0z
m50 -149 c0 -20 -26 -40 -35 -26 -10 16 2 40 20 40 8 0 15 -6 15 -14z m-140
-91 c0 -8 -9 -15 -19 -15 -24 0 -36 16 -19 23 24 10 38 7 38 -8z m458 -4 c29
-10 55 -21 59 -25 3 -3 21 -6 39 -6 49 0 385 -69 439 -89 16 -7 65 -14 110
-17 44 -2 98 -5 120 -7 32 -2 135 -49 135 -62 0 -2 -20 -13 -45 -25 -24 -12
-55 -34 -67 -49 -13 -15 -32 -30 -43 -35 -16 -6 -17 -9 -5 -16 20 -13 87 -13
95 0 7 11 55 14 55 3 0 -12 -33 -43 -46 -43 -23 0 -79 -39 -103 -71 -29 -39
-22 -54 40 -87 24 -12 58 -37 76 -54 28 -27 39 -31 80 -30 26 1 60 5 76 8 20
4 29 1 34 -12 4 -10 2 -19 -5 -22 -22 -7 -12 -27 26 -51 74 -49 75 -51 47 -77
-14 -13 -25 -33 -25 -45 0 -20 32 -72 67 -107 7 -7 13 -34 13 -60 1 -26 7 -58
15 -72 8 -14 14 -49 15 -78 0 -29 5 -62 11 -73 9 -17 6 -25 -15 -44 -56 -52
-6 -84 77 -50 13 5 17 2 17 -13 0 -12 -5 -24 -11 -28 -8 -4 -8 -9 0 -17 17
-17 13 -38 -11 -64 -24 -26 -70 -34 -48 -8 19 23 -22 69 -63 69 -33 1 -37 11
-22 48 13 33 -46 36 -89 5 -26 -19 -13 -53 37 -99 28 -25 45 -53 55 -85 24
-79 15 -188 -17 -217 -33 -30 -160 -58 -275 -61 -105 -2 -111 -4 -133 -29 -15
-18 -23 -40 -23 -64 0 -50 -52 -158 -80 -167 -26 -8 -70 1 -70 16 0 5 -22 37
-50 70 -27 33 -50 66 -50 73 0 20 -75 115 -141 179 -41 40 -59 65 -59 83 0 17
-8 27 -25 34 -14 5 -55 39 -90 75 -53 53 -71 65 -97 65 -18 0 -46 7 -62 15
-33 17 -97 29 -251 46 -55 6 -109 16 -120 22 -22 12 -68 23 -162 39 -48 9 -82
8 -140 -1 -43 -7 -121 -14 -173 -15 -91 -1 -95 0 -98 21 -3 23 16 38 73 59 30
11 30 12 35 98 l5 88 40 14 c22 7 52 14 67 14 37 0 77 17 84 34 6 15 -1 27
-49 78 -104 113 -148 214 -126 290 5 18 9 53 9 77 0 42 18 109 46 179 8 18 14
45 14 60 0 15 7 37 15 49 8 11 17 37 19 58 6 46 21 57 126 90 47 15 108 38
135 51 64 29 107 40 225 54 52 6 109 15 125 20 47 13 76 11 133 -9z m-914
-240 c22 -24 13 -41 -20 -41 -29 0 -42 24 -24 45 16 20 23 19 44 -4z m2127
-440 c31 -32 34 -38 19 -61 -19 -30 -98 38 -84 74 9 24 32 20 65 -13z m-2626
-539 c0 -18 -20 -15 -23 4 -3 10 1 15 10 12 7 -3 13 -10 13 -16z m2735 -367
c0 -8 -9 -15 -20 -15 -20 0 -26 11 -13 23 12 13 33 7 33 -8z"/>
<path d="M7368 11319 c-21 -12 -23 -35 -4 -54 7 -8 42 -21 77 -31 50 -13 70
-14 92 -5 39 15 33 45 -10 49 -21 2 -33 9 -36 23 -4 14 -14 19 -40 19 -20 0
-41 2 -49 5 -7 2 -21 0 -30 -6z"/>
<path d="M6893 11163 c-41 -21 -43 -43 -5 -43 31 0 68 32 57 49 -8 14 -13 13
-52 -6z"/>
<path d="M7372 10988 c7 -20 58 -23 58 -4 0 11 -10 16 -31 16 -20 0 -29 -4
-27 -12z"/>
<path d="M6481 10918 c-87 -20 -155 -97 -163 -187 -5 -46 -2 -54 19 -71 23
-18 28 -18 60 -5 19 8 51 27 71 43 21 15 55 40 77 54 56 36 145 123 145 141 0
8 -6 19 -12 24 -18 13 -143 14 -197 1z"/>
<path d="M6860 10775 c-10 -12 -24 -14 -61 -9 -42 6 -50 4 -56 -12 -13 -36
-48 -76 -98 -112 -73 -54 -84 -70 -85 -124 0 -55 8 -63 46 -43 16 8 39 15 51
15 22 0 53 24 53 41 0 10 73 49 93 49 8 0 22 -10 30 -23 18 -27 12 -42 -39
-92 -19 -19 -34 -39 -34 -44 0 -6 -11 -13 -25 -17 -14 -3 -25 -12 -25 -20 0
-18 5 -18 58 3 l43 16 34 -33 c56 -54 77 -30 50 57 -5 16 -3 25 9 29 24 9 66
-4 73 -24 7 -20 38 -52 51 -52 5 0 17 9 27 20 10 11 44 36 76 57 32 21 63 48
68 60 9 20 9 22 -7 12 -24 -15 -92 19 -123 62 -18 26 -20 35 -11 50 16 25 15
44 -3 59 -8 7 -15 22 -15 35 0 39 -30 55 -102 55 -46 0 -69 -4 -78 -15z"/>
<path d="M6577 10433 c-13 -13 -7 -42 11 -52 26 -14 62 -2 62 20 0 27 -54 51
-73 32z"/>
<path d="M6431 10366 c-10 -12 -6 -15 18 -21 16 -3 35 -13 42 -21 13 -16 39
-19 39 -4 0 17 -51 60 -70 60 -10 0 -23 -6 -29 -14z"/>
<path d="M6952 10148 c7 -20 56 -34 69 -21 18 18 1 33 -37 33 -24 0 -34 -4
-32 -12z"/>
<path d="M7557 11484 c-14 -14 -7 -35 11 -32 9 2 17 10 17 17 0 16 -18 25 -28
15z"/>
<path d="M5105 10290 c-4 -6 -1 -50 5 -98 11 -80 15 -89 40 -104 17 -10 31
-28 35 -47 5 -24 12 -31 31 -31 23 0 24 3 24 69 0 54 -5 78 -26 117 -43 81
-91 123 -109 94z"/>
<path d="M4992 10020 c-16 -13 -22 -26 -17 -39 8 -25 -39 -113 -71 -129 -13
-7 -24 -17 -24 -23 0 -11 -101 -109 -112 -109 -3 0 -20 -12 -37 -26 -24 -20
-31 -34 -31 -61 0 -19 -6 -47 -14 -61 -32 -64 -71 -218 -82 -329 -4 -35 -11
-66 -15 -69 -5 -3 -9 -42 -9 -88 0 -78 1 -84 30 -111 17 -16 30 -36 30 -44 0
-9 12 -29 26 -44 14 -16 24 -31 21 -34 -10 -10 -78 19 -84 36 -7 18 -71 81
-83 81 -4 0 -19 -9 -34 -21 -21 -17 -26 -29 -26 -65 0 -25 6 -57 14 -72 7 -15
24 -57 36 -95 17 -51 29 -70 49 -80 26 -12 26 -13 27 -135 0 -79 5 -127 12
-134 7 -7 12 -22 12 -35 0 -13 7 -26 15 -29 26 -11 18 -35 -11 -32 -24 3 -29
-2 -41 -40 -8 -23 -12 -49 -9 -57 8 -21 36 -18 36 3 0 12 17 26 49 42 28 13
52 29 55 36 3 8 15 14 26 14 26 0 28 -48 3 -57 -10 -4 -31 -16 -46 -27 l-28
-20 23 -18 c21 -15 21 -17 5 -23 -18 -8 -24 -35 -7 -35 16 0 11 -27 -6 -34 -9
-3 -14 -12 -11 -20 3 -8 -3 -22 -13 -31 -20 -18 -38 -81 -26 -92 3 -4 13 2 21
13 8 10 15 14 15 8 0 -18 -37 -47 -45 -35 -3 6 -19 11 -34 11 -21 0 -31 -7
-43 -34 -9 -19 -14 -43 -11 -55 6 -23 19 -28 26 -8 2 6 8 9 12 5 12 -11 -16
-68 -42 -85 -16 -11 -22 -22 -18 -34 5 -14 0 -22 -18 -28 -29 -11 -71 -66 -62
-81 3 -5 17 -10 31 -10 15 0 24 -6 24 -15 0 -8 -8 -15 -18 -15 -28 0 -32 -9
-16 -38 18 -36 18 -72 -1 -72 -9 0 -15 10 -15 26 0 16 -5 24 -12 21 -7 -2 -12
-12 -11 -23 1 -10 -3 -26 -8 -35 -6 -12 -3 -24 10 -40 10 -13 21 -42 23 -64 3
-22 7 -47 9 -55 3 -12 -5 -15 -36 -15 -32 0 -42 -5 -52 -25 -7 -14 -13 -38
-13 -55 0 -16 -7 -52 -15 -79 -28 -93 -11 -125 39 -71 32 35 53 16 65 -60 9
-55 8 -61 -11 -78 l-21 -18 24 -25 24 -25 -25 -19 c-28 -22 -66 -27 -54 -8 12
18 4 111 -10 128 -7 8 -16 27 -20 43 -13 53 -43 23 -56 -55 -10 -61 -23 -120
-57 -268 -14 -58 -28 -137 -33 -177 -5 -40 -11 -77 -15 -83 -4 -6 -13 -59 -20
-117 -13 -105 -28 -142 -68 -167 -12 -8 -22 -5 -41 13 -22 21 -26 22 -32 7 -3
-9 1 -31 10 -50 18 -39 20 -62 6 -71 -5 -3 -10 -21 -10 -38 0 -18 -7 -43 -15
-57 -8 -14 -18 -32 -22 -40 -4 -8 -31 -50 -60 -94 -29 -43 -53 -84 -53 -92 0
-7 -14 -28 -31 -45 l-32 -33 7 -95 c7 -95 25 -218 44 -296 6 -22 17 -78 27
-125 17 -86 27 -122 65 -220 12 -30 24 -64 27 -75 3 -11 16 -44 30 -73 13 -29
33 -83 43 -120 11 -37 27 -89 35 -117 30 -98 51 -201 66 -310 6 -44 18 -112
26 -152 19 -87 14 -106 -24 -97 -16 4 -39 12 -53 19 -14 7 -47 22 -73 35 -40
18 -47 25 -41 42 5 18 3 20 -12 13 -40 -16 -53 -16 -82 -1 -17 9 -42 16 -56
16 -14 0 -27 4 -30 9 -7 10 -58 35 -146 71 -30 12 -59 26 -64 31 -6 5 -20 9
-32 9 -12 0 -27 6 -33 14 -6 8 -22 16 -34 19 -44 11 -108 38 -147 62 -22 14
-46 25 -54 25 -7 0 -19 7 -26 15 -7 8 -19 15 -28 15 -9 0 -26 10 -38 21 -13
12 -44 25 -70 30 -42 8 -50 7 -71 -13 -28 -26 -29 -34 -3 -41 11 -3 20 -10 20
-16 0 -13 -75 -53 -84 -44 -13 14 -6 61 11 67 15 6 15 8 3 16 -31 20 -58 10
-87 -30 -15 -23 -50 -69 -77 -103 -27 -34 -64 -84 -81 -112 -39 -60 -111 -135
-130 -135 -14 0 -248 -172 -284 -207 -26 -26 -178 -123 -193 -123 -7 0 -22 -6
-33 -13 -11 -7 -45 -24 -75 -37 -61 -25 -186 -85 -210 -100 -8 -5 -39 -21 -69
-35 -30 -14 -67 -37 -83 -50 -16 -13 -46 -29 -66 -35 -20 -6 -64 -30 -97 -54
-92 -66 -83 -88 50 -126 17 -4 44 -13 60 -19 17 -5 62 -18 100 -27 50 -12 78
-25 97 -45 32 -34 32 -34 66 -9 26 19 30 20 127 5 55 -9 159 -20 230 -26 72
-5 148 -14 170 -20 77 -22 152 -48 210 -73 32 -15 68 -26 81 -26 12 0 26 -4
29 -10 3 -5 25 -15 48 -21 23 -6 60 -20 82 -31 22 -11 63 -21 90 -23 28 -1 91
-16 140 -33 77 -26 111 -31 230 -36 284 -13 293 -15 417 -74 48 -23 100 -42
116 -42 24 0 50 -20 138 -105 59 -58 112 -105 116 -105 4 0 8 -8 8 -19 0 -37
21 -41 205 -40 136 1 184 4 200 15 22 14 70 13 211 -2 33 -4 54 -2 58 5 12 18
127 13 166 -7 43 -22 113 -67 160 -103 19 -14 46 -29 60 -33 14 -4 34 -11 45
-15 11 -5 34 -14 50 -21 44 -18 132 -40 160 -40 29 0 67 56 69 103 1 23 7 33
21 35 29 5 41 20 29 32 -14 14 15 79 34 80 7 0 17 -11 21 -24 5 -13 17 -26 25
-29 21 -8 20 -55 -1 -79 -14 -16 -15 -24 -5 -51 6 -18 8 -44 5 -59 -7 -37 24
-126 47 -133 11 -3 33 1 51 10 17 9 55 17 84 17 44 1 61 -5 108 -36 30 -20 57
-45 60 -56 7 -27 25 -25 29 3 3 19 8 22 43 19 22 -1 63 5 90 13 28 8 68 16 90
17 32 3 42 8 53 31 25 51 62 28 77 -50 4 -21 21 -44 50 -68 31 -25 46 -46 51
-70 7 -37 -7 -65 -33 -65 -8 0 -21 -7 -29 -15 -9 -9 -25 -13 -37 -10 -27 7
-100 -22 -92 -35 4 -6 59 -10 124 -10 l119 0 7 38 c4 20 8 57 9 82 4 50 10 69
65 185 21 44 41 87 45 95 36 81 86 121 86 70 0 -11 6 -34 14 -52 8 -18 22 -55
32 -83 10 -27 30 -63 46 -78 15 -16 32 -36 37 -45 18 -32 24 12 7 53 -9 21
-16 55 -16 77 0 21 -6 54 -14 72 -7 18 -14 55 -14 83 0 27 -5 59 -10 70 -24
45 26 44 95 -1 28 -18 86 -53 128 -76 l78 -43 186 -4 c289 -5 291 -5 380 3 63
5 92 12 113 27 36 27 35 34 -4 40 -18 3 -53 10 -77 17 -25 6 -85 12 -135 14
-82 3 -91 5 -91 22 0 15 11 21 50 29 28 6 61 18 75 27 44 29 104 42 139 30 17
-6 82 -14 143 -18 70 -4 121 -12 135 -21 17 -11 60 -14 200 -12 98 1 238 2
311 1 129 0 133 -1 152 -25 11 -13 54 -41 97 -61 43 -21 90 -44 105 -52 29
-15 84 -19 92 -5 9 14 153 21 208 10 46 -10 53 -9 65 7 7 10 13 33 13 51 0 27
-6 37 -30 51 -17 9 -29 24 -28 32 3 12 21 15 90 16 47 1 136 10 197 19 102 17
112 20 124 44 10 21 20 27 57 29 25 2 49 7 55 13 5 5 18 9 30 9 11 0 36 8 55
18 19 11 47 22 63 26 15 3 27 13 27 21 0 24 19 26 41 4 18 -18 28 -20 78 -14
31 4 76 14 100 22 25 8 81 19 125 23 45 5 97 13 116 19 19 6 46 11 59 11 24 0
129 58 169 93 41 37 20 75 -34 61 -14 -4 -24 -2 -24 5 0 6 -14 11 -31 11 -31
0 -31 -1 -25 -39 8 -54 0 -71 -35 -71 -34 0 -43 16 -44 72 0 46 -24 52 -49 13
-20 -30 -50 -32 -62 -4 l-9 20 -27 -20 c-28 -22 -73 -28 -83 -11 -7 12 71 110
88 110 7 0 32 9 56 20 37 17 41 22 31 35 -18 22 -72 19 -93 -5 -9 -11 -29 -20
-44 -20 -16 0 -37 -7 -47 -15 -11 -8 -36 -15 -55 -15 -20 0 -58 -7 -86 -16
-116 -37 -192 -56 -285 -73 -55 -10 -78 -19 -109 -43 -13 -10 -34 -18 -46 -18
-12 0 -28 -6 -34 -13 -10 -13 -79 -20 -319 -33 -83 -5 -229 -39 -253 -60 -8
-8 -19 -14 -23 -14 -4 0 -31 -16 -61 -35 -29 -20 -59 -33 -68 -30 -19 8 -52
94 -41 105 5 5 34 10 64 12 41 2 55 7 55 18 0 11 -21 19 -80 28 -154 25 -165
26 -188 5 -12 -11 -41 -28 -65 -38 -39 -17 -61 -17 -275 -10 -127 4 -300 6
-384 5 -99 -1 -159 3 -173 10 -12 7 -68 15 -123 19 -56 4 -112 13 -124 19 -12
7 -43 12 -70 12 -52 0 -217 25 -233 35 -13 8 -13 42 0 50 5 3 10 18 10 32 0
14 10 38 23 53 12 16 36 47 52 71 17 23 47 54 67 69 21 15 55 50 77 78 22 28
45 53 51 57 25 16 70 90 70 116 0 15 4 30 9 33 5 4 12 30 16 59 4 28 11 68 16
87 13 44 25 122 43 270 8 63 18 127 21 142 6 21 1 35 -19 59 -25 29 -26 33
-11 55 8 13 15 37 15 55 0 17 6 43 14 57 8 15 19 52 25 82 7 30 14 66 17 80 7
30 60 172 82 218 16 34 35 39 77 20 20 -9 34 -9 62 1 24 9 42 10 57 4 41 -19
92 -35 131 -43 22 -4 51 -12 65 -17 84 -35 129 -44 151 -33 12 7 34 16 48 20
14 5 51 18 81 30 30 11 74 25 97 30 23 6 67 21 97 35 30 14 60 25 66 25 6 0
21 5 33 12 49 27 96 41 167 49 41 4 99 11 127 14 39 6 57 4 70 -6 11 -10 42
-13 104 -12 49 1 91 -2 94 -6 2 -5 -7 -25 -21 -46 -14 -21 -24 -45 -22 -53 3
-16 11 -21 103 -63 101 -45 208 -125 290 -215 126 -141 209 -215 269 -244 18
-9 32 -24 34 -38 3 -19 9 -22 48 -22 35 0 49 -5 67 -26 12 -15 36 -33 53 -40
27 -11 30 -17 26 -44 -3 -21 2 -40 15 -58 21 -29 60 -95 103 -177 16 -29 30
-77 34 -110 4 -33 13 -73 21 -90 7 -16 19 -64 26 -105 6 -41 20 -95 30 -119
12 -28 19 -68 19 -112 0 -51 5 -77 21 -103 19 -33 25 -36 64 -36 24 0 46 4 50
9 3 6 38 20 78 32 115 35 124 51 82 135 -14 27 -25 57 -25 67 0 32 -19 55 -51
62 -39 9 -77 82 -59 115 12 23 0 54 -25 64 -8 3 -15 15 -15 26 0 39 -144 279
-194 325 -6 6 -27 30 -45 55 -19 25 -50 61 -69 82 -19 20 -31 41 -28 47 12 18
-20 63 -98 141 -41 41 -81 81 -88 89 -7 8 -98 100 -201 205 -214 217 -202 190
-141 325 19 40 34 83 34 96 0 12 9 30 20 40 11 10 24 32 29 49 40 129 90 196
147 196 17 0 43 9 57 20 21 17 25 26 20 51 -6 30 -5 30 33 27 34 -3 39 0 42
19 2 14 -4 26 -16 32 -14 7 -18 17 -15 31 11 40 -50 150 -83 150 -7 0 -20 -7
-28 -16 -26 -26 -53 -9 -61 38 -4 24 -17 50 -32 64 -21 19 -23 25 -10 29 8 4
27 -5 43 -21 25 -23 81 -54 99 -54 3 0 1 8 -4 18 -5 9 -20 39 -33 65 -53 111
-69 138 -82 143 -15 6 -30 38 -41 87 -6 30 -68 126 -88 139 -9 6 -9 12 1 25
23 33 24 43 12 74 -9 21 -22 32 -41 36 -33 6 -39 33 -8 33 30 0 79 38 79 62 0
15 -4 18 -17 12 -10 -4 -41 -8 -70 -8 -38 -1 -56 -6 -66 -19 -10 -14 -23 -18
-57 -15 l-45 3 2 78 c1 64 6 86 28 123 25 42 26 47 10 64 -15 17 -14 19 15 42
53 41 35 85 -45 114 -16 6 -13 8 18 14 47 9 65 24 49 42 -7 8 -7 19 -2 28 11
19 4 30 -21 30 -25 0 -35 25 -19 45 16 20 5 45 -19 45 -11 0 -44 11 -73 24
-29 13 -78 27 -107 31 -30 3 -66 12 -80 20 -53 27 -110 47 -122 43 -7 -2 -21
4 -31 14 -22 22 -46 23 -72 3 -11 -8 -30 -15 -43 -15 -13 0 -35 -7 -48 -16
-31 -20 -45 -11 -45 32 0 21 -5 34 -12 34 -20 -1 -121 -36 -164 -58 -21 -10
-55 -22 -75 -26 -20 -3 -44 -15 -53 -25 -17 -18 -17 -20 4 -31 17 -9 19 -14 9
-26 -17 -20 -37 -17 -44 7 -7 20 -12 21 -74 15 -36 -4 -85 -8 -108 -9 -22 -1
-45 -5 -49 -9 -11 -11 -34 -10 -34 2 0 5 14 23 30 40 37 37 38 58 5 66 -28 7
-31 16 -11 34 21 16 9 41 -47 99 -55 57 -83 68 -97 40 -13 -22 -47 -24 -74 -4
-34 26 -69 18 -95 -20 -13 -19 -27 -35 -31 -35 -10 0 -213 217 -219 233 -2 7
-25 37 -51 67 -67 79 -91 116 -85 132 7 19 68 48 99 48 59 0 118 150 81 207
-8 12 -15 28 -15 36 0 7 -9 30 -20 52 -11 22 -20 49 -20 62 0 12 -11 48 -25
79 -14 31 -25 66 -25 77 0 11 -6 28 -14 36 -7 9 -21 41 -30 71 -24 74 -66 163
-110 230 -20 30 -36 59 -36 65 1 25 -72 234 -101 287 -5 10 -9 26 -9 35 0 10
-7 27 -15 37 -8 11 -15 41 -15 67 0 26 -7 60 -15 76 -8 15 -28 66 -46 113 -54
147 -73 179 -164 280 -73 81 -104 108 -150 130 -52 25 -75 60 -56 84 20 23 -4
29 -67 15 -56 -13 -101 -42 -102 -66 0 -17 52 -17 68 -1 20 20 75 -7 142 -72
61 -57 62 -59 55 -98 -7 -46 7 -82 33 -82 33 0 62 -29 62 -63 0 -32 19 -101
46 -165 8 -18 14 -41 14 -50 0 -10 7 -27 15 -38 8 -10 15 -26 15 -35 0 -9 13
-50 29 -90 16 -41 45 -116 65 -167 20 -51 40 -101 45 -110 33 -69 61 -147 70
-197 8 -42 28 -109 41 -136 5 -9 12 -48 16 -87 5 -58 3 -76 -10 -97 -22 -33
-30 -32 -55 8 -11 17 -33 50 -48 72 -15 22 -36 58 -48 80 -12 22 -41 76 -65
120 -23 44 -51 94 -60 112 -10 17 -29 46 -44 63 -14 17 -26 37 -26 44 0 7 -10
21 -21 32 -12 10 -25 29 -30 41 -13 34 -91 153 -100 153 -5 0 -15 13 -23 29
-9 16 -88 100 -176 187 -133 132 -166 170 -196 229 -53 105 -58 113 -87 135
-14 12 -32 33 -39 48 -13 25 -17 27 -70 24 -40 -3 -69 2 -101 16 l-45 20 -36
-24 c-29 -20 -36 -31 -36 -58 0 -30 24 -66 45 -66 14 0 117 -93 127 -115 7
-16 7 -29 -2 -45 -11 -20 -17 -22 -57 -16 -26 3 -51 10 -57 15 -10 9 -202 26
-431 38 -68 4 -97 10 -118 25 -32 23 -90 20 -168 -7 -23 -8 -65 -15 -95 -15
-29 0 -76 -5 -104 -11 -79 -17 -409 -46 -454 -39 -35 4 -41 9 -44 31 -2 15 6
51 16 82 17 48 19 69 12 157 -9 113 -9 112 59 283 6 15 11 38 11 50 1 12 10
33 21 47 l21 24 19 -24 c11 -14 22 -38 26 -53 7 -36 28 -44 62 -24 22 13 44
14 131 7 58 -4 125 -13 149 -19 36 -10 47 -9 58 2 12 12 9 17 -21 35 -46 27
-59 61 -50 129 6 47 4 56 -17 78 -13 13 -34 25 -46 25 -12 0 -25 5 -28 11 -5
7 -13 5 -25 -6 -17 -16 -19 -15 -29 2 -5 11 -7 37 -4 59 5 37 1 43 -44 92 -53
56 -75 62 -111 32z m-407 -1225 c0 -22 -14 -28 -34 -16 -12 8 -13 12 -1 26 16
20 35 14 35 -10z m145 -31 c0 -17 -42 -19 -71 -3 -29 15 -16 25 30 21 27 -3
41 -9 41 -18z m-60 -395 c0 -5 -7 -9 -15 -9 -15 0 -20 12 -9 23 8 8 24 -1 24
-14z m2500 -894 c7 -8 16 -15 21 -15 36 0 209 -137 209 -166 0 -7 4 -14 8 -14
21 0 142 -202 142 -238 0 -11 108 -103 157 -134 89 -57 249 -221 322 -330 58
-85 123 -159 151 -170 24 -9 24 -10 6 -24 -16 -12 -18 -18 -8 -39 6 -14 15
-25 20 -25 4 0 15 -15 24 -32 48 -97 62 -295 24 -337 -59 -65 -185 22 -194
135 -3 34 -11 59 -22 69 -27 25 -32 6 -34 -119 -1 -121 -14 -159 -51 -154 -11
2 -34 24 -51 50 -35 52 -77 178 -68 201 11 29 -14 57 -51 57 -30 0 -35 -4 -40
-27 -23 -120 -31 -138 -56 -141 -52 -6 -148 132 -164 238 -11 72 -14 77 -62
106 -60 35 -138 55 -188 49 -22 -3 -60 -7 -85 -10 -173 -17 -353 -80 -415
-145 -16 -17 -36 -30 -44 -30 -9 0 -29 -7 -46 -16 -68 -35 -186 -51 -520 -70
-58 -4 -106 -11 -115 -19 -23 -19 -80 -27 -86 -12 -8 22 14 67 32 67 22 0 94
42 164 95 30 23 71 49 90 58 59 27 201 59 267 60 52 0 63 3 63 18 0 24 7 29
157 109 18 10 48 31 67 46 18 16 61 46 95 66 l61 37 0 50 0 50 -57 37 c-32 20
-75 54 -96 75 -31 32 -44 39 -77 39 -29 0 -40 4 -40 15 0 23 29 31 115 34 79
2 81 1 120 -34 22 -19 50 -35 63 -35 14 0 54 -29 109 -80 47 -45 105 -93 127
-108 28 -19 42 -36 44 -55 3 -27 16 -35 27 -17 13 20 61 10 89 -19 18 -18 42
-31 69 -35 33 -6 52 -18 92 -59 27 -28 63 -59 80 -67 21 -10 39 -34 59 -75 52
-111 61 -127 71 -133 12 -7 211 -4 238 5 23 6 20 32 -13 113 -12 30 -31 82
-43 115 -11 33 -28 76 -36 94 -25 55 -228 251 -259 251 -15 0 -113 30 -150 46
-18 8 -48 14 -68 14 -27 0 -36 5 -44 24 -5 13 -19 32 -32 41 -163 115 -188
144 -188 217 0 26 -4 48 -10 48 -16 0 -12 42 7 62 18 21 53 24 71 6 8 -8 15
-9 22 -2 6 6 -3 25 -25 53 -19 23 -37 51 -40 62 -4 10 -10 19 -15 19 -16 0
-40 31 -40 51 0 23 32 26 50 4z m-2740 -286 c0 -38 -24 -35 -28 4 -2 19 1 27
12 27 11 0 16 -10 16 -31z m3734 -286 c17 -16 43 -36 56 -45 l25 -18 -46 -42
c-25 -24 -51 -53 -58 -66 -14 -26 -56 -39 -75 -23 -7 6 -16 37 -20 69 -3 31
-7 68 -8 81 -2 13 3 27 12 31 8 4 29 14 45 23 38 21 32 22 69 -10z m889 -179
c20 -8 44 -14 52 -14 8 0 31 -11 51 -25 21 -14 49 -28 63 -32 14 -3 49 -16 78
-29 29 -13 82 -26 118 -30 36 -4 68 -11 71 -15 3 -5 4 -9 2 -9 -2 -1 -37 -8
-78 -16 -41 -8 -113 -18 -160 -21 -83 -5 -88 -4 -138 26 -58 34 -107 40 -138
16 -10 -8 -29 -15 -42 -15 -13 0 -70 -16 -128 -35 -62 -21 -114 -33 -128 -29
-16 4 -32 -3 -54 -21 -38 -32 -104 -51 -203 -59 -92 -7 -109 -13 -109 -37 0
-10 -13 -25 -29 -34 -27 -13 -31 -13 -46 1 -14 14 -13 18 15 44 24 23 29 33
24 58 -5 25 -1 33 38 64 60 48 144 93 201 107 26 6 72 22 101 36 30 14 66 25
79 25 13 0 27 3 31 7 4 4 49 19 99 33 99 28 164 29 230 4z m-4593 2 c0 -8 -6
-16 -13 -19 -19 -7 -41 8 -33 22 10 16 46 14 46 -3z m4984 -341 c2 -44 5 -84
6 -90 1 -5 -7 -32 -17 -60 l-19 -50 -57 -3 c-46 -2 -58 0 -64 14 -7 18 17 102
50 173 24 53 77 115 88 104 4 -4 10 -44 13 -88z m-750 67 c-1 -7 -2 -23 -2
-37 -2 -18 -8 -25 -22 -25 -23 0 -27 28 -9 61 11 21 35 21 33 1z m161 10 c6
-4 11 -26 13 -49 2 -38 0 -43 -23 -49 -42 -10 -29 -27 58 -72 79 -40 92 -52
127 -116 15 -26 56 -48 118 -63 12 -3 37 -24 54 -47 18 -22 38 -47 45 -54 7
-8 17 -21 22 -31 6 -10 35 -26 65 -36 59 -20 114 -64 162 -130 32 -44 35 -48
94 -147 23 -38 45 -68 50 -68 6 0 10 -10 10 -22 0 -26 48 -91 61 -82 6 3 8 22
4 44 -5 28 -2 42 10 54 21 20 61 21 69 0 10 -26 7 -31 -26 -51 -18 -11 -39
-31 -46 -45 -12 -22 -11 -29 17 -70 33 -50 39 -82 17 -95 -8 -4 -16 -19 -18
-33 -2 -19 -10 -26 -30 -28 -25 -3 -27 -6 -31 -70 -5 -73 -20 -140 -41 -187
-8 -16 -22 -57 -33 -90 -19 -64 -69 -146 -106 -175 -12 -10 -41 -21 -64 -24
-29 -5 -47 -15 -58 -32 -11 -17 -24 -24 -38 -22 -23 3 -25 15 -16 83 4 28 2
30 -34 33 -21 2 -45 -2 -54 -10 -13 -10 -18 -9 -34 10 -13 17 -29 23 -61 24
-54 1 -176 -19 -230 -38 -22 -8 -52 -14 -67 -14 -14 -1 -37 -7 -51 -15 -47
-25 -67 20 -30 68 11 14 20 30 20 35 0 6 6 23 14 39 21 42 38 94 43 131 8 54
38 66 165 67 97 0 111 2 124 19 8 11 14 28 14 37 0 10 19 32 43 48 23 17 52
46 64 64 20 30 21 37 12 122 -9 81 -13 92 -37 110 -15 11 -50 42 -78 70 -28
27 -88 84 -132 125 -70 64 -82 80 -82 108 0 37 -33 105 -84 172 -19 25 -35 51
-35 59 -1 15 -106 158 -154 208 -39 41 -31 63 22 63 39 0 39 0 57 57 27 87 84
141 119 115z m353 -54 c15 -15 16 -132 2 -159 -21 -38 -100 -15 -100 29 0 26
61 142 74 142 7 0 17 -5 24 -12z m-2265 -215 c12 -7 7 -47 -8 -67 -8 -11 -15
-26 -15 -33 0 -20 -49 -93 -66 -100 -26 -10 -41 18 -62 105 -25 108 -19 117
77 107 36 -4 69 -9 74 -12z m463 -114 c24 -27 9 -52 -37 -60 -88 -16 -195 -73
-222 -119 -9 -14 -38 -48 -67 -75 -28 -28 -56 -58 -61 -68 -15 -27 -2 -54 31
-61 22 -4 33 -15 45 -43 18 -43 82 -113 103 -113 8 0 40 13 71 29 31 16 94 47
141 70 47 22 110 54 140 71 30 16 71 32 90 35 19 3 50 10 69 15 36 10 125 -4
149 -22 20 -17 15 -48 -8 -48 -26 0 -55 -15 -145 -74 -38 -25 -72 -46 -77 -46
-4 0 -26 -13 -50 -28 -77 -51 -103 -57 -236 -56 -197 3 -229 9 -276 55 -37 37
-41 39 -72 29 -18 -6 -38 -18 -46 -27 -24 -30 -148 -105 -163 -99 -25 9 -17
28 45 101 51 60 75 105 54 105 -3 0 -39 -25 -80 -55 -41 -30 -93 -62 -117 -71
-23 -9 -54 -22 -69 -30 -14 -8 -34 -14 -43 -14 -9 0 -40 -13 -70 -30 -81 -45
-118 -37 -80 17 23 33 104 88 165 113 155 61 188 80 228 128 20 23 52 50 72
60 64 32 90 54 90 76 0 28 119 178 167 210 21 15 49 26 63 26 14 0 32 5 40 10
8 5 42 10 76 10 49 0 65 -4 80 -21z m764 -387 c32 -26 17 -47 -64 -87 -84 -41
-119 -44 -140 -13 -15 20 -14 24 6 45 12 13 27 23 33 23 6 0 16 5 23 12 15 15
69 35 98 37 12 0 32 -7 44 -17z m451 -13 c21 -21 23 -21 49 -5 34 20 67 20
100 1 14 -8 45 -14 70 -15 71 0 113 -43 78 -78 -17 -17 -39 -15 -54 6 -11 14
-16 15 -33 5 -32 -20 -124 -53 -146 -53 -29 0 -45 -19 -45 -52 0 -31 33 -52
78 -49 13 0 41 -8 62 -19 22 -11 49 -20 61 -20 12 0 31 -7 41 -17 15 -14 24
-14 55 -5 59 18 71 1 24 -32 -37 -26 -49 -29 -143 -31 -117 -3 -166 -13 -182
-37 -17 -27 6 -45 39 -30 37 17 78 -3 70 -35 -4 -16 -1 -25 10 -28 53 -17 52
-15 30 -32 -16 -12 -45 -14 -145 -11 l-125 3 -8 -40 c-4 -22 -11 -53 -14 -69
-4 -19 3 -46 22 -86 15 -32 25 -65 22 -73 -3 -9 -27 -25 -54 -37 -38 -17 -59
-20 -103 -15 -134 14 -213 16 -224 5 -6 -6 -11 -28 -11 -48 0 -34 -4 -39 -60
-74 -35 -21 -73 -37 -92 -37 -18 -1 -43 -6 -57 -12 -20 -9 -29 -9 -41 1 -19
16 -20 86 0 124 8 15 15 35 15 44 0 20 54 158 96 247 22 47 43 75 62 86 35 20
142 146 142 168 0 9 7 25 15 35 8 11 15 37 15 57 0 21 4 48 10 61 5 13 14 41
20 64 10 42 56 98 103 128 32 19 80 14 109 -11 16 -14 18 -14 24 1 15 38 84
46 115 15z m1139 -5 c0 -6 -9 -14 -21 -17 -11 -3 -23 -15 -26 -26 -3 -12 -12
-21 -20 -21 -10 0 -12 6 -8 20 4 13 1 22 -9 26 -9 3 -16 12 -16 20 0 10 13 13
50 12 30 -1 50 -7 50 -14z m-3890 -214 c0 -23 -22 -27 -39 -7 -13 16 -5 27 21
27 11 0 18 -7 18 -20z m4076 -145 c4 -8 12 -15 20 -15 9 0 14 -11 14 -30 0
-30 -9 -35 -43 -22 -20 9 -50 60 -41 73 9 15 44 10 50 -6z m-5126 -29 c0 -19
-14 -28 -34 -20 -25 10 -19 34 9 34 15 0 25 -6 25 -14z m2995 -26 c6 -10 -19
-49 -81 -128 -29 -37 -82 -150 -90 -192 -4 -19 -14 -45 -22 -57 -8 -13 -12
-29 -9 -36 10 -28 -49 -284 -92 -397 -16 -41 -23 -89 -28 -190 -3 -82 -11
-146 -19 -162 -8 -15 -14 -42 -14 -60 0 -50 -29 -227 -47 -283 -8 -27 -26 -63
-38 -80 -25 -32 -95 -163 -95 -176 0 -10 -58 -97 -70 -104 -5 -3 -15 8 -23 26
l-13 32 -23 -84 c-29 -98 -55 -144 -105 -182 -20 -16 -36 -36 -36 -45 0 -10
-8 -24 -17 -33 -10 -8 -35 -36 -57 -61 -56 -67 -147 -110 -223 -106 l-58 3 -3
38 c-2 23 9 79 28 140 18 56 34 111 37 122 3 11 16 40 29 64 13 24 24 47 24
51 0 13 48 113 80 165 16 28 32 57 36 65 3 8 10 24 16 35 6 10 21 37 32 60 12
22 34 59 49 82 15 24 27 46 27 50 0 3 6 14 14 22 8 9 42 70 76 136 34 66 75
139 91 163 16 24 29 49 29 57 0 8 9 31 19 52 35 69 70 148 85 193 15 43 15 46
-5 73 -21 29 -22 28 28 42 13 4 38 86 48 160 4 28 12 61 19 75 7 14 20 40 29
58 9 19 17 41 17 50 0 43 120 185 254 303 82 71 90 76 101 59z m2085 0 c0 -5
-7 -10 -15 -10 -8 0 -15 5 -15 10 0 6 7 10 15 10 8 0 15 -4 15 -10z m-2549
-501 c26 -13 15 -29 -20 -29 -34 0 -44 9 -30 27 14 16 24 16 50 2z m-256 -38
c7 -12 -31 -25 -46 -15 -8 4 -7 9 2 15 18 11 36 11 44 0z m67 -163 l15 -22 12
22 c9 17 21 22 51 22 44 0 58 -26 18 -32 -18 -2 -24 -11 -26 -35 -4 -43 -22
-57 -50 -37 -12 8 -22 22 -22 30 0 18 -24 18 -40 -1 -7 -8 -18 -15 -26 -15
-22 0 -27 20 -10 39 9 10 16 22 16 28 0 11 16 21 36 22 6 1 18 -9 26 -21z
m-3986 -453 c4 -8 15 -15 26 -15 11 0 34 -10 51 -22 71 -51 170 -98 267 -127
41 -13 83 -27 92 -32 10 -5 26 -9 35 -9 10 0 33 -9 51 -20 18 -11 40 -20 49
-20 9 0 38 -13 65 -30 26 -16 51 -30 54 -30 14 0 83 -36 134 -71 30 -20 71
-40 90 -44 19 -4 52 -16 72 -26 21 -11 44 -19 52 -19 8 0 36 -10 63 -21 26
-12 66 -25 88 -30 22 -4 83 -17 135 -29 52 -12 111 -24 130 -27 19 -3 40 -9
45 -13 6 -4 30 -11 55 -15 74 -12 84 -24 87 -106 2 -59 8 -80 33 -120 16 -27
30 -56 30 -65 0 -9 6 -28 14 -42 8 -15 22 -47 32 -72 9 -25 31 -62 47 -83 16
-22 45 -68 64 -105 42 -82 63 -111 136 -191 31 -35 60 -75 63 -90 9 -36 28
-55 75 -76 22 -10 38 -23 36 -29 -3 -9 -111 -26 -167 -27 -82 0 -199 27 -245
58 -11 7 -29 13 -42 13 -12 0 -46 6 -75 14 -39 10 -105 13 -238 11 -245 -4
-312 3 -325 32 -5 13 -22 25 -40 29 -16 3 -35 10 -40 14 -18 15 -213 110 -224
110 -7 0 -23 7 -37 16 -17 11 -37 15 -64 11 -28 -3 -40 -1 -44 9 -6 16 -5 17
69 39 63 19 95 19 137 1 18 -8 69 -29 113 -47 44 -18 100 -45 125 -60 25 -14
57 -28 70 -31 29 -7 81 -25 128 -44 73 -31 142 -5 129 48 -8 32 6 52 32 45 33
-8 26 18 -12 47 -19 15 -41 26 -50 26 -23 0 -21 27 2 35 46 14 115 -15 266
-111 75 -47 165 -97 170 -93 2 2 -2 24 -8 49 -10 37 -28 62 -98 130 -47 47
-116 126 -152 175 -36 50 -77 104 -91 121 -16 19 -26 44 -26 63 0 50 -38 154
-66 179 -14 12 -36 22 -48 22 -13 0 -35 9 -49 21 -42 32 -175 99 -199 99 -52
0 -195 53 -211 77 -6 9 -41 13 -121 13 -123 0 -254 23 -321 57 -22 11 -56 24
-75 28 -19 4 -64 18 -100 32 -94 37 -125 44 -221 47 -121 5 -194 39 -250 118
l-20 27 71 67 c123 116 164 142 176 109z m896 -221 c3 -3 -5 -17 -19 -30 -22
-22 -30 -24 -61 -17 l-36 9 35 22 c33 21 69 28 81 16z m108 -34 c22 -22 26
-51 10 -80 -14 -25 -76 -43 -102 -29 -19 10 -19 12 11 43 19 20 31 42 31 59 0
33 21 36 50 7z m-1732 -408 c2 -12 13 -27 25 -34 12 -6 28 -17 35 -25 7 -7 24
-13 36 -13 38 0 89 -21 119 -48 23 -22 38 -26 87 -27 54 -1 142 -31 220 -76 8
-5 40 -22 70 -38 30 -16 72 -43 93 -59 21 -17 55 -36 75 -43 20 -6 44 -18 53
-25 9 -8 43 -28 77 -44 51 -24 62 -34 62 -54 0 -15 -7 -27 -19 -31 -17 -5
-124 8 -276 35 -51 9 -233 67 -317 101 -26 10 -55 19 -66 19 -11 0 -25 7 -32
15 -9 11 -33 15 -84 15 -41 0 -77 5 -84 12 -12 12 -64 23 -187 38 -96 12 -225
40 -242 53 -8 6 -24 5 -43 -3 -27 -11 -34 -10 -70 14 -43 28 -50 49 -24 64 9
5 14 14 10 21 -9 14 -56 15 -56 1 0 -5 -7 -10 -15 -10 -8 0 -15 5 -15 10 0 6
6 10 14 10 8 0 16 6 19 14 7 19 220 61 360 71 20 2 44 8 52 15 31 26 81 49
100 47 12 -1 21 -11 23 -25z m3482 -663 c0 -20 -41 -33 -52 -16 -9 15 -10 51
-2 60 10 10 53 -26 54 -44z m781 3 c13 -11 57 -34 96 -53 78 -36 90 -53 45
-62 -22 -4 -38 -22 -70 -76 -23 -39 -42 -75 -42 -81 0 -6 -10 -24 -22 -40 -16
-22 -30 -30 -52 -30 -18 0 -40 -10 -56 -25 -37 -35 -92 -37 -119 -4 -15 19
-17 27 -8 38 7 8 12 24 13 35 0 12 1 58 2 103 2 75 4 85 35 123 32 42 56 59
112 78 42 14 40 14 66 -6z m-2901 -17 c0 -16 -35 -21 -44 -6 -8 12 4 21 26 21
10 0 18 -7 18 -15z m2017 -25 c18 -22 31 -29 44 -25 11 4 19 2 19 -4 0 -6 -9
-11 -20 -11 -13 0 -20 -7 -20 -20 0 -11 5 -20 11 -20 6 0 9 -6 6 -12 -2 -7
-15 -12 -29 -10 -19 2 -27 -2 -31 -18 -8 -32 -27 -14 -27 24 0 24 7 38 23 49
21 14 21 15 5 34 -17 19 -24 43 -12 43 3 0 17 -14 31 -30z m-1947 -5 c0 -15
-43 -12 -48 3 -3 10 4 13 22 10 15 -2 26 -7 26 -13z m6095 -25 c8 -13 -20 -24
-42 -16 -15 6 -15 8 -3 16 20 13 37 12 45 0z m-299 -56 c-5 -13 -10 -14 -18
-6 -6 6 -8 18 -4 28 5 13 10 14 18 6 6 -6 8 -18 4 -28z m157 -39 c1 -5 -6 -11
-15 -13 -11 -2 -18 3 -18 13 0 17 30 18 33 0z m-355 -27 c10 -28 10 -35 -4
-45 -37 -27 -75 32 -42 65 20 20 33 14 46 -20z m-5278 -3 c8 -10 11 -31 6 -61
-4 -34 -2 -46 9 -50 18 -7 20 -38 2 -52 -9 -8 -22 -1 -48 26 -50 50 -55 74
-29 117 23 38 40 44 60 20z m2941 -14 c23 -7 45 -24 60 -45 12 -18 40 -44 61
-57 21 -13 38 -27 38 -32 0 -17 -32 -18 -70 -3 -22 9 -55 16 -73 16 -17 1 -61
9 -97 18 -70 19 -70 19 -54 87 4 17 11 33 16 36 10 6 59 -2 119 -20z m729 9
c0 -13 -7 -20 -20 -20 -19 0 -27 20 -13 33 13 14 33 6 33 -13z m-3260 -59 c0
-17 -92 -72 -109 -66 -13 5 -8 13 23 41 37 32 86 46 86 25z m1028 -8 c12 -3
22 -9 22 -14 0 -15 -20 -21 -50 -14 -21 5 -30 13 -30 27 0 15 4 18 18 13 9 -4
27 -10 40 -12z m3377 -2 c8 -15 -28 -31 -45 -21 -13 8 -3 16 37 29 1 1 4 -3 8
-8z m-1565 -47 c0 -11 -8 -14 -32 -12 -46 4 -49 28 -4 28 26 0 36 -4 36 -16z
m-1912 -16 c-4 -30 -48 -39 -48 -10 0 24 8 32 32 32 14 0 19 -6 16 -22z m342
-13 c0 -21 -27 -30 -46 -15 -12 11 -12 15 -2 21 21 14 48 10 48 -6z m2185 4
c10 -15 -1 -23 -20 -15 -9 3 -13 10 -10 16 8 13 22 13 30 -1z m205 -4 c0 -8
-7 -15 -15 -15 -8 0 -15 7 -15 15 0 8 7 15 15 15 8 0 15 -7 15 -15z m60 -5 c0
-11 -7 -20 -15 -20 -8 0 -15 9 -15 20 0 11 7 20 15 20 8 0 15 -9 15 -20z m750
-50 c-6 -11 -21 -20 -35 -20 -13 0 -27 -5 -30 -10 -4 -7 6 -10 27 -9 18 1 45
-3 59 -9 18 -7 30 -7 37 0 12 12 32 2 32 -17 0 -21 -19 -28 -36 -14 -11 9 -20
9 -40 0 -14 -6 -35 -11 -48 -11 -24 0 -61 32 -50 43 10 9 -47 29 -64 22 -12
-4 -12 -9 2 -30 31 -47 12 -62 -27 -22 -12 13 -39 34 -60 46 -41 25 -44 47 -6
44 13 -1 67 -3 119 -5 l95 -2 3 28 c3 28 4 28 18 7 11 -16 12 -26 4 -41z
m-3258 -7 c25 -21 54 -43 64 -49 21 -12 11 -34 -15 -34 -27 0 -121 78 -121
101 0 28 20 23 72 -18z m-414 -4 c4 -19 -24 -29 -87 -29 l-44 0 34 24 c39 28
92 31 97 5z m972 -37 c0 -8 -6 -28 -14 -45 -8 -18 -16 -43 -18 -56 -2 -14 -8
-26 -15 -28 -9 -3 -11 14 -9 64 2 37 4 81 5 97 l1 29 25 -23 c14 -13 25 -30
25 -38z"/>
<path d="M6043 9680 c-35 -14 -28 -27 19 -34 44 -7 66 7 46 31 -12 15 -33 16
-65 3z"/>
<path d="M5613 9603 c-17 -6 -16 -60 1 -70 7 -4 19 -25 26 -46 16 -49 34 -56
68 -25 15 14 41 32 57 39 40 19 48 59 10 59 -14 0 -53 11 -87 25 -34 14 -62
25 -62 24 -1 0 -7 -3 -13 -6z"/>
<path d="M5964 9561 c-12 -12 -1 -31 18 -31 12 0 37 -15 56 -32 31 -31 38 -33
94 -31 69 3 77 7 60 31 -7 9 -16 27 -22 39 -8 20 -17 22 -105 25 -53 2 -99 1
-101 -1z"/>
<path d="M6234 9487 c-33 -29 -25 -47 20 -47 18 0 41 -7 52 -15 45 -34 135 1
107 43 -6 9 -17 15 -25 13 -46 -14 -74 -12 -92 8 -24 26 -29 26 -62 -2z"/>
<path d="M5814 9485 c-11 -27 4 -44 43 -51 27 -5 53 -22 92 -60 50 -50 56 -53
75 -40 24 16 28 55 6 66 -19 10 -81 37 -100 44 -8 4 -35 17 -59 31 -52 29 -50
29 -57 10z"/>
<path d="M5594 9298 c-12 -13 -32 -30 -44 -39 -38 -25 -17 -40 48 -33 79 8 87
11 72 29 -6 7 -10 24 -8 37 4 33 -39 36 -68 6z"/>
<path d="M6965 9039 c-5 -6 11 -30 39 -57 36 -37 48 -44 58 -34 10 10 9 21 -2
55 -14 38 -18 42 -52 45 -20 2 -39 -2 -43 -9z"/>
<path d="M4563 8093 c-22 -8 -14 -33 10 -33 30 0 40 10 26 27 -12 14 -16 15
-36 6z"/>
<path d="M4377 7343 c-13 -12 -7 -33 8 -33 8 0 15 9 15 20 0 20 -11 26 -23 13z"/>
<path d="M8040 7075 c0 -17 2 -18 24 -9 23 9 20 24 -4 24 -11 0 -20 -7 -20
-15z"/>
<path d="M9649 6373 c-1 -4 -2 -17 -3 -28 -1 -14 -7 -19 -23 -18 -31 4 -38
-18 -38 -112 l0 -80 35 3 c19 1 41 9 50 17 9 8 22 15 28 15 8 0 12 20 12 56 0
43 4 60 18 70 16 11 15 13 -10 23 -16 6 -28 19 -30 33 -3 21 -36 39 -39 21z
m1 -188 c0 -8 -4 -15 -9 -15 -13 0 -22 16 -14 24 11 11 23 6 23 -9z"/>
<path d="M3860 5885 c0 -8 7 -15 15 -15 8 0 15 7 15 15 0 8 -7 15 -15 15 -8 0
-15 -7 -15 -15z"/>
<path d="M3620 5816 c0 -9 -5 -25 -12 -36 -10 -15 -9 -24 2 -45 7 -14 18 -24
24 -22 16 5 14 109 -1 115 -7 2 -13 -4 -13 -12z"/>
<path d="M3802 5748 c-18 -18 -14 -28 8 -28 11 0 20 6 20 14 0 21 -15 27 -28
14z"/>
<path d="M3506 5635 c-7 -19 3 -47 15 -39 5 3 9 14 9 24 0 24 -16 34 -24 15z"/>
<path d="M3635 5580 c3 -5 13 -10 21 -10 8 0 14 5 14 10 0 6 -9 10 -21 10 -11
0 -17 -4 -14 -10z"/>
<path d="M9195 4421 c-7 -12 12 -24 25 -16 11 7 4 25 -10 25 -5 0 -11 -4 -15
-9z"/>
<path d="M10671 2915 c-17 -15 -31 -35 -31 -45 0 -27 36 -35 66 -15 20 13 24
23 22 47 -4 41 -19 44 -57 13z"/>
<path d="M10692 2807 c-15 -18 0 -71 22 -75 23 -5 46 16 46 42 0 40 -44 62
-68 33z"/>
<path d="M7876 2291 c-9 -14 4 -41 19 -41 12 0 25 21 25 41 0 12 -37 12 -44 0z"/>
<path d="M6050 1930 c0 -15 5 -20 18 -18 9 2 17 10 17 18 0 8 -8 16 -17 18
-13 2 -18 -3 -18 -18z"/>
<path d="M6156 1833 c6 -4 13 -16 17 -25 5 -13 17 -18 47 -18 53 0 56 26 3 32
-21 3 -47 8 -58 12 -11 5 -15 4 -9 -1z"/>
</g>
</svg>
